<svg id="Layer_1" data-name="Layer 1" xmlns="http://www.w3.org/2000/svg" viewBox="0 0 16 16"><defs><style>.cls-1{fill:#fff;}.cls-2{fill:#fc4355;}</style></defs><title>dc_fav</title><path class="cls-1" d="M9.69,7.34,8.48.71a3.17,3.17,0,0,0-1,.64Z"/><path class="cls-1" d="M10.46,1.76a2.73,2.73,0,0,0-1.23.49l1.18,6.8Z"/><path class="cls-1" d="M7.41,13.63a2.28,2.28,0,0,1-3.49-1.92,2.28,2.28,0,0,1,4.55-.16l.91.56,1-1.14a2.56,2.56,0,0,0,0-.27A4,4,0,0,0,10,9.79h0l-1.8-4.9L6.44,0A6.41,6.41,0,0,0,5.8.53,3,3,0,0,0,5,1.71,5,5,0,0,0,4.79,3a2.77,2.77,0,0,0,.13.94l.65,1.29L6.69,7.44l-.24,0H6.2a4.3,4.3,0,1,0,2.69,7.65Z"/><polygon class="cls-2" points="13.62 8.09 9.45 12.62 6.86 11.03 6.05 11.75 9.54 15.14 14.09 8.47 13.62 8.09"/></svg>