<svg id="Layer_1" data-name="Layer 1" xmlns="http://www.w3.org/2000/svg" viewBox="0 0 498.23 82.91"><defs><style>.cls-1{fill:#fff;}.cls-2{fill:#fc4355;}</style></defs><title>dealchecker</title><path class="cls-1" d="M41.23,41.6,35,7.24s-4,1.52-5.34,3.28Z" transform="translate(-0.88 -3.54)"/><path class="cls-1" d="M45.2,12.66s-4.05.53-6.34,2.52L45,50.46Z" transform="translate(-0.88 -3.54)"/><path class="cls-1" d="M29.43,74.17A11.67,11.67,0,0,1,23.14,76,11.8,11.8,0,1,1,34.9,63.38l4.73,2.9,5.43-5.9c-.08-.46-.17-.92-.28-1.37A22.19,22.19,0,0,0,43,54.25h0L33.73,28.9,24.39,3.54a31.51,31.51,0,0,0-3.31,2.74c-1.75,1.65-3.65,3.86-4.31,6.11a25.24,25.24,0,0,0-.95,6.7A13.11,13.11,0,0,0,16.53,24c.26.59,1.58,3.23,3.32,6.67L25.7,42.1c-.42-.05-.85-.09-1.27-.11s-.86,0-1.29,0A22.26,22.26,0,1,0,37.05,81.56Z" transform="translate(-0.88 -3.54)"/><polygon class="cls-2" points="60.69 41.94 39.12 65.38 25.68 57.15 21.47 60.9 39.57 78.45 63.16 43.89 60.69 41.94"/><path class="cls-1" d="M91.36,75.38H81.27V29.94q9.65-.35,12.14-.34,9.93,0,15.75,5.82T115,50.86Q115,75.38,91.36,75.38ZM89.34,37V68c1.3.13,2.71.19,4.22.19a11.47,11.47,0,0,0,9.58-4.44q3.45-4.44,3.46-12.41,0-14.59-13.57-14.59C92.16,36.77,90.93,36.84,89.34,37Z" transform="translate(-0.88 -3.54)"/><path class="cls-1" d="M151.32,61.13H127.58a8.4,8.4,0,0,0,2.73,6.18,9.88,9.88,0,0,0,6.76,2.2q5.31,0,8.07-2.76l3,5.93Q144.05,76,135.92,76q-7.6,0-12-4.45t-4.43-12.43q0-7.86,4.86-12.73A15.86,15.86,0,0,1,136,41.52q7.23,0,11.6,4.31a14.77,14.77,0,0,1,4.38,11A21.93,21.93,0,0,1,151.32,61.13ZM127.85,55.3h16.33q-.81-7.29-8.07-7.3Q129.47,48,127.85,55.3Z" transform="translate(-0.88 -3.54)"/><path class="cls-1" d="M176.67,72.06A7.53,7.53,0,0,1,173,74.9a14.11,14.11,0,0,1-5.48,1.1c-3.58,0-6.4-.89-8.44-2.69A9.58,9.58,0,0,1,156,65.69a10.7,10.7,0,0,1,4.33-9q4.33-3.25,12.31-3.25a13.58,13.58,0,0,1,3.23.46q0-5.86-7.42-5.87a16.5,16.5,0,0,0-7.33,1.46l-1.67-6A21.84,21.84,0,0,1,169,41.52q7.61,0,11.14,3.46t3.54,13.11V65.2q0,6.64,2.67,8.35a4.23,4.23,0,0,1-2.15,2.06,8.54,8.54,0,0,1-2.7.39,4.31,4.31,0,0,1-3-1.24A6.36,6.36,0,0,1,176.67,72.06Zm-.74-12.32a16.63,16.63,0,0,0-3-.41q-9.19,0-9.19,6,0,4.47,5.19,4.47,7,0,7-7Z" transform="translate(-0.88 -3.54)"/><path class="cls-1" d="M193.37,29.76l7.76-1.87V65.26q0,6.15,3.66,7.33A6.38,6.38,0,0,1,198.65,76q-5.28,0-5.28-7.32Z" transform="translate(-0.88 -3.54)"/><path class="cls-2" d="M242.41,32.33,239.09,39q-2.7-2.7-8.69-2.7a11.2,11.2,0,0,0-9.31,4.77q-3.65,4.76-3.64,12.06t3.37,11.57a10.84,10.84,0,0,0,9,4.28,12.1,12.1,0,0,0,10.05-4.59l3.76,6.52q-4.94,5.25-14.46,5.24t-14.81-6.26q-5.28-6.27-5.28-17.11,0-10.08,5.86-16.86a18.87,18.87,0,0,1,15-6.78Q237.72,29.14,242.41,32.33Z" transform="translate(-0.88 -3.54)"/><path class="cls-2" d="M271.18,75.38V54.9A6.54,6.54,0,0,0,269.25,50a6.93,6.93,0,0,0-5-1.86,8.09,8.09,0,0,0-3.87,1,7.1,7.1,0,0,0-2.8,2.37V75.38h-7.88V29.76l7.88-1.87V44.25q3-2.73,8.29-2.73,6.24,0,9.68,3.46T279,54.9V75.38Z" transform="translate(-0.88 -3.54)"/><path class="cls-2" d="M317,61.13H293.27A8.45,8.45,0,0,0,296,67.31a9.88,9.88,0,0,0,6.76,2.2q5.31,0,8.07-2.76l3,5.93Q309.76,76,301.62,76q-7.61,0-12-4.45t-4.42-12.43q0-7.86,4.85-12.73a15.86,15.86,0,0,1,11.66-4.87q7.23,0,11.6,4.31a14.77,14.77,0,0,1,4.38,11A21.93,21.93,0,0,1,317,61.13ZM293.55,55.3h16.33q-.81-7.29-8.07-7.3Q295.16,48,293.55,55.3Z" transform="translate(-0.88 -3.54)"/><path class="cls-2" d="M350,44.78l-3.33,5.8A10.22,10.22,0,0,0,339.3,48a8.77,8.77,0,0,0-7,2.94c-1.7,2-2.56,4.66-2.56,8.11q0,10.47,10,10.46a11.29,11.29,0,0,0,7.61-2.85l2.85,6.11a19.45,19.45,0,0,1-5.91,2.67,28.18,28.18,0,0,1-6,.56q-7.69,0-12.15-4.48T321.7,59.05q0-7.84,4.88-12.69t13.28-4.84A16.22,16.22,0,0,1,350,44.78Z" transform="translate(-0.88 -3.54)"/><path class="cls-2" d="M377.66,75.38l-9.78-15-3.72,3.94V75.38H356.4V29.76l7.76-1.87v27l11.08-12.76h9.34l-11.23,12.6,13.53,20.64Z" transform="translate(-0.88 -3.54)"/><path class="cls-2" d="M420.89,61.13H397.15a8.48,8.48,0,0,0,2.73,6.18,9.9,9.9,0,0,0,6.77,2.2q5.31,0,8.07-2.76l3,5.93Q413.64,76,405.5,76q-7.61,0-12-4.45t-4.42-12.43q0-7.86,4.86-12.73a15.86,15.86,0,0,1,11.65-4.87q7.23,0,11.61,4.31a14.77,14.77,0,0,1,4.38,11A21.37,21.37,0,0,1,420.89,61.13ZM397.43,55.3h16.33Q413,48,405.69,48,399,48,397.43,55.3Z" transform="translate(-0.88 -3.54)"/><path class="cls-2" d="M447,49.37A8.12,8.12,0,0,0,442.4,48a6.16,6.16,0,0,0-4.79,2.46,8.88,8.88,0,0,0-2.1,6V75.38h-7.76V42.14h7.76v3a11,11,0,0,1,8.66-3.66,12.36,12.36,0,0,1,6.08,1.21Z" transform="translate(-0.88 -3.54)"/><path class="cls-1" d="M445.76,71.68a1.9,1.9,0,0,1,1.39.57,2,2,0,0,1,0,2.78,1.88,1.88,0,0,1-1.39.59,2,2,0,0,1-2-2,2,2,0,0,1,2-2Z" transform="translate(-0.88 -3.54)"/><path class="cls-1" d="M463.32,62.48l-1.23,1.75a3.81,3.81,0,0,0-1.35-.72,5.56,5.56,0,0,0-1.89-.34,4,4,0,0,0-3.22,1.42,5.89,5.89,0,0,0-1.19,3.89,5.27,5.27,0,0,0,1.22,3.75A4.42,4.42,0,0,0,459,73.52a5.58,5.58,0,0,0,3.37-1.29l1,2.09a8.87,8.87,0,0,1-5,1.3,6.28,6.28,0,0,1-4.73-1.93,7.14,7.14,0,0,1-1.88-5.21,7.46,7.46,0,0,1,1.95-5.38,7.46,7.46,0,0,1,7.67-1.57A6.61,6.61,0,0,1,463.32,62.48Z" transform="translate(-0.88 -3.54)"/><path class="cls-1" d="M465.1,68.31a7.69,7.69,0,0,1,1.74-5.24,6.5,6.5,0,0,1,9.28-.08,7.85,7.85,0,0,1,1.66,5.32,7.89,7.89,0,0,1-1.7,5.35,6.48,6.48,0,0,1-9.31,0A8,8,0,0,1,465.1,68.31Zm2.61,0c0,3.52,1.25,5.28,3.73,5.28a3.16,3.16,0,0,0,2.73-1.41,6.66,6.66,0,0,0,1-3.87q0-5.2-3.72-5.21a3.2,3.2,0,0,0-2.71,1.39A6.35,6.35,0,0,0,467.71,68.31Z" transform="translate(-0.88 -3.54)"/><path class="cls-1" d="M496.63,75.36V66.48q0-3.32-2.87-3.31A3.18,3.18,0,0,0,491,65V75.36h-2.49v-10a1.93,1.93,0,0,0-.78-1.63,3.26,3.26,0,0,0-2.06-.6,2.86,2.86,0,0,0-1.59.58A3.38,3.38,0,0,0,482.89,65V75.36H480.4v-14H482l.83,1.62a4.35,4.35,0,0,1,3.6-1.88c2,0,3.41.62,4.21,1.87a3.25,3.25,0,0,1,1.56-1.34,5.4,5.4,0,0,1,2.34-.53,4.4,4.4,0,0,1,3.37,1.28A5.16,5.16,0,0,1,499.12,66v9.38Z" transform="translate(-0.88 -3.54)"/></svg>